<svg width="483" height="190" viewBox="0 0 483 190" fill="none" xmlns="http://www.w3.org/2000/svg">
<path d="M29.9167 124.045H28.9167V125.045V158.238V159.238H29.9167H452.266H453.266V158.238V125.045V124.045H452.266H29.9167Z" fill="#FF688C" stroke="white" stroke-width="2"/>
<path d="M55.6009 149.894V142.039H51.6806V149.894H47.7603V134.184H49.7134V132.217H57.5681V134.184H59.5352V149.894H55.6009ZM55.6009 134.184H51.6806V140.072H55.6009V134.184Z" fill="white"/>
<path d="M68.7709 149.894V147.927H66.8038V138.118H64.8506V136.151H66.8038V132.231H70.7241V136.151H72.6912V138.118H70.7241V147.927H72.6912V149.894H68.7709Z" fill="white"/>
<path d="M81.9411 149.894V147.927H79.9739V138.118H78.0208V136.151H79.9739V132.231H83.8943V136.151H85.8614V138.118H83.8943V147.927H85.8614V149.894H81.9411Z" fill="white"/>
<path d="M100.984 147.927V149.894H93.1297V147.927H91.1765V138.118H93.1297V136.151H100.984V138.118H102.951V144.006H95.0968V147.927H100.984ZM99.0311 138.118H95.1108V142.025H99.0311V138.118ZM100.984 147.927V145.96H102.951V147.927H100.984Z" fill="white"/>
<path d="M116.122 149.894V138.119H112.201V149.894H108.281V136.137H118.089V138.105H120.056V149.88H116.122V149.894Z" fill="white"/>
<path d="M129.292 149.894V147.927H127.325V138.118H125.372V136.151H127.325V132.231H131.245V136.151H133.212V138.118H131.245V147.927H133.212V149.894H129.292Z" fill="white"/>
<path d="M138.528 134.184V132.217H142.448V134.184H138.528ZM138.528 149.894V136.137H142.448V149.894H138.528Z" fill="white"/>
<path d="M157.571 145.973V147.927H155.618V149.894H151.698V147.927H149.731V145.973H147.778V136.151H151.698V145.973H155.618V136.151H159.553V145.973H157.585H157.571Z" fill="white"/>
<path d="M174.662 147.927V149.894H166.807V147.927H164.854V138.118H166.807V136.151H174.662V138.118H176.629V144.006H168.774V147.927H174.662ZM172.708 138.118H168.788V142.025H172.708V138.118ZM174.662 147.927V145.96H176.629V147.927H174.662Z" fill="white"/>
<path d="M348.97 147.927V149.894H341.116V147.927H339.163V134.184H341.116V132.217H348.97V134.184H350.938V136.137H348.97V134.184H343.083V147.927H348.97ZM348.97 147.927V145.96H350.938V147.927H348.97Z" fill="white"/>
<path d="M364.108 147.927V149.894H356.253V147.927H354.3V138.119H356.253V136.151H364.108V138.119H366.075V147.927H364.108ZM362.154 138.119H358.234V147.927H362.154V138.119Z" fill="white"/>
<path d="M387.085 149.894V138.119H383.165V149.894H379.231V138.119H375.31V149.894H371.39V136.137H389.053V138.105H391.02V149.88H387.099L387.085 149.894Z" fill="white"/>
<path d="M406.143 147.927V149.894H400.256V153.815H396.335V136.137H406.143V138.105H408.11V147.913H406.143V147.927ZM404.19 138.119H400.269V147.927H404.19V138.119Z" fill="white"/>
<path d="M413.426 149.894V132.217H417.346V149.894H413.426Z" fill="white"/>
<path d="M432.469 153.814V155.782H424.629V153.814H422.662V151.847H424.629V153.814H430.516V149.908H424.629V147.94H422.662V136.165H426.582V147.94H430.502V136.165H434.437V153.828H432.469V153.814Z" fill="white"/>
<path d="M235.49 148.289V150.257H225.682V132.579H235.49V134.546H237.457V140.434H235.49V142.402H237.457V148.289H235.49ZM233.537 134.546H229.616V140.434H233.537V134.546ZM233.537 142.402H229.616V148.289H233.537V142.402Z" fill="white"/>
<path d="M244.726 150.257V148.29H242.773V136.514H246.693V148.29H250.614V136.514H254.548V150.271H244.726V150.257Z" fill="white"/>
<path d="M259.863 134.546V132.579H263.783V134.546H259.863ZM259.863 150.257V136.5H263.783V150.257H259.863Z" fill="white"/>
<path d="M269.099 150.257V132.579H273.019V150.257H269.099Z" fill="white"/>
<path d="M280.288 150.257V148.29H278.335V138.481H280.288V136.514H286.189V132.593H290.124V150.271H280.302L280.288 150.257ZM286.189 138.481H282.269V148.29H286.189V138.481Z" fill="white"/>
<path d="M203.318 140.811H198.993V145.136H203.318V140.811Z" fill="white"/>
<path d="M317.133 140.811H312.808V145.136H317.133V140.811Z" fill="white"/>
<mask id="path-24-outside-1_64_3" maskUnits="userSpaceOnUse" x="260.519" y="0" width="65" height="66" fill="black">
<rect fill="white" x="260.519" width="65" height="66"/>
<path d="M323.272 63.9898L303.698 2H283.148L263.519 63.9898H283.511L293.416 25.7746L303.698 63.934H323.342"/>
</mask>
<path d="M323.272 63.9898L303.698 2H283.148L263.519 63.9898H283.511L293.416 25.7746L303.698 63.934H323.342" fill="#211E1F"/>
<path d="M321.365 64.592C321.698 65.6453 322.821 66.2296 323.874 65.897C324.928 65.5644 325.512 64.4409 325.179 63.3876L321.365 64.592ZM303.698 2L305.606 1.39779L305.164 0H303.698V2ZM283.148 2V0H281.684L281.241 1.39623L283.148 2ZM263.519 63.9898L261.612 63.386L260.787 65.9898H263.519V63.9898ZM283.511 63.9898V65.9898H285.059L285.447 64.4916L283.511 63.9898ZM293.416 25.7746L295.347 25.2543L293.379 17.9483L291.48 25.2728L293.416 25.7746ZM303.698 63.934L301.767 64.4544L302.166 65.934H303.698V63.934ZM323.342 65.934C324.447 65.934 325.342 65.0386 325.342 63.934C325.342 62.8294 324.447 61.934 323.342 61.934V65.934ZM325.179 63.3876L305.606 1.39779L301.791 2.60221L321.365 64.592L325.179 63.3876ZM303.698 0H283.148V4H303.698V0ZM281.241 1.39623L261.612 63.386L265.425 64.5936L285.055 2.60377L281.241 1.39623ZM263.519 65.9898H283.511V61.9898H263.519V65.9898ZM285.447 64.4916L295.352 26.2764L291.48 25.2728L281.575 63.488L285.447 64.4916ZM291.485 26.295L301.767 64.4544L305.63 63.4137L295.347 25.2543L291.485 26.295ZM303.698 65.934H323.342V61.934H303.698V65.934Z" fill="white" mask="url(#path-24-outside-1_64_3)"/>
<mask id="path-26-outside-2_64_3" maskUnits="userSpaceOnUse" x="206.522" y="-0.832817" width="65" height="67" fill="black">
<rect fill="white" x="206.522" y="-0.832817" width="65" height="67"/>
<path d="M208.606 2.16718L228.165 64.157H248.73L268.345 2.16718H248.353L238.448 40.3684L228.165 2.20904H208.522"/>
</mask>
<path d="M208.606 2.16718L228.165 64.157H248.73L268.345 2.16718H248.353L238.448 40.3684L228.165 2.20904H208.522" fill="#DD223D"/>
<path d="M210.513 1.56537C210.181 0.51199 209.057 -0.0724974 208.004 0.259877C206.951 0.592251 206.366 1.71562 206.698 2.769L210.513 1.56537ZM228.165 64.157L226.258 64.7588L226.699 66.157H228.165V64.157ZM248.73 64.157V66.157H250.195L250.637 64.7604L248.73 64.157ZM268.345 2.16718L270.252 2.77056L271.076 0.167183H268.345V2.16718ZM248.353 2.16718V0.167183H246.806L246.417 1.66519L248.353 2.16718ZM238.448 40.3684L236.517 40.8888L238.485 48.1934L240.384 40.8704L238.448 40.3684ZM228.165 2.20904L230.097 1.68869L229.698 0.20904H228.165V2.20904ZM208.522 0.20904C207.417 0.20904 206.522 1.10447 206.522 2.20904C206.522 3.31361 207.417 4.20904 208.522 4.20904V0.20904ZM206.698 2.769L226.258 64.7588L230.073 63.5552L210.513 1.56537L206.698 2.769ZM228.165 66.157H248.73V62.157H228.165V66.157ZM250.637 64.7604L270.252 2.77056L266.439 1.5638L246.823 63.5536L250.637 64.7604ZM268.345 0.167183H248.353V4.16718H268.345V0.167183ZM246.417 1.66519L236.512 39.8664L240.384 40.8704L250.289 2.66917L246.417 1.66519ZM240.379 39.8481L230.097 1.68869L226.234 2.72939L236.517 40.8888L240.379 39.8481ZM228.165 0.20904H208.522V4.20904H228.165V0.20904Z" fill="white" mask="url(#path-26-outside-2_64_3)"/>
<path d="M286.589 63.6827L286.264 64.934H287.557H299.666H300.971L300.632 63.6739L294.466 40.7783L293.482 37.1269L292.532 40.7871L286.589 63.6827Z" fill="#211E1F" stroke="white" stroke-width="2" stroke-linecap="round"/>
<path d="M157.856 20.1661V21.1661H158.856H200.64H201.64V20.1661V2.20954V1.20954H200.64H158.856H157.856V2.20954V20.1661ZM157.856 64.1575V65.1575H158.856H200.64H201.64V64.1575V46.201V45.201H200.64H179.025V43.1548H200.64H201.64V42.1548V24.1983V23.1983H200.64H158.856H157.856V24.1983V46.187V46.201V64.1575Z" fill="#211E1F" stroke="white" stroke-width="2" stroke-linecap="round"/>
<path d="M1 108.065L2 109.065H9.00358L10.0036 108.065V98.5535L17.1875 108.645L18.0022 109.065H23.9873L24.9873 108.065V84.1091L23.9873 83.1091H16.9977L15.9977 84.1091V93.6661L8.77152 83.5287L7.95723 83.1091H2L1 84.1091V108.065Z" fill="black" stroke="white" stroke-width="2" stroke-linejoin="bevel"/>
<path d="M29.3071 108.065L30.3071 109.065H48.4578L49.4578 108.065V102.708L48.4578 101.708H38.2968V99.801H47.0767L48.0767 98.801V93.3736L47.0767 92.3736H38.2968V90.467H48.4578L49.4578 89.467V84.1093L48.4578 83.1093H30.3071L29.3071 84.1093V108.065Z" fill="black" stroke="white" stroke-width="2" stroke-linejoin="bevel"/>
<path d="M58.4892 109.065H58.5032H64.8092L65.7629 108.366L68.6783 99.1195L71.3689 108.345L72.3289 109.065H78.6489L79.6232 108.291L85.1619 84.3346L84.1876 83.1093H77.3514L76.3758 83.89L74.3749 92.792L71.8115 83.8342L70.8501 83.1093H65.1161L64.1161 84.1093V87.5805L62.6257 92.7066L60.7365 83.8996L59.7588 83.1093H52.9226L51.9487 84.3362L57.5292 108.292L58.4892 108.069V109.065Z" fill="black" stroke="white" stroke-width="2" stroke-linejoin="bevel"/>
<path d="M107.253 108.065L108.253 109.065H115.243L116.243 108.065V99.5535L124.734 84.6032L123.865 83.1093H116.582L115.701 83.6373L111.742 91.0296L107.796 83.6383L106.914 83.1093H99.6313L98.7618 84.6032L107.253 99.5535V108.065Z" fill="black" stroke="white" stroke-width="2" stroke-linejoin="bevel"/>
<path d="M127.706 108.065L128.706 109.065H146.857L147.857 108.065V102.708L146.857 101.708H136.696V99.801H145.476L146.476 98.801V93.3736L145.476 92.3736H136.696V90.467H146.857L147.857 89.467V84.1093L146.857 83.1093H128.706L127.706 84.1093V108.065Z" fill="black" stroke="white" stroke-width="2" stroke-linejoin="bevel"/>
<path d="M150.388 107.707L151.322 109.065H158.604L159.537 108.426L161.257 103.973H167.104L168.863 108.432L169.793 109.065H177.076L178.01 107.707L168.83 83.7515L167.896 83.1093H160.502L159.568 83.7515L150.388 107.707ZM162.957 96.9499L164.185 93.7272L165.412 96.9499H162.957Z" fill="black" stroke="white" stroke-width="2" stroke-linejoin="bevel"/>
<path d="M182.67 83.1093L181.67 84.1093V108.037V108.065H182.67V109.037H189.66L190.66 108.037V102.047H191.627C192.055 102.047 192.241 102.129 192.296 102.165C192.36 102.206 192.504 102.343 192.65 102.676L192.65 102.677L195.175 108.439L196.091 109.037H203.374L204.29 107.636L201.542 101.358L201.534 101.34C201.278 100.785 201.033 100.307 200.803 99.9436C201.796 99.2838 202.632 98.4431 203.302 97.4259C204.227 96.0229 204.681 94.4753 204.681 92.6202C204.681 90.8162 204.335 89.1869 203.648 87.7519C202.946 86.2831 201.868 85.1258 200.435 84.3136C198.987 83.4932 197.199 83.1093 195.129 83.1093H182.67ZM193.343 94.7176H190.66V90.467H193.566C194.385 90.467 194.82 90.6828 195.065 90.9444C195.322 91.218 195.538 91.7201 195.538 92.6341C195.538 93.436 195.317 93.9076 195.012 94.1973C194.692 94.5011 194.188 94.7176 193.343 94.7176Z" fill="black" stroke="white" stroke-width="2" stroke-linejoin="bevel"/>
<path d="M218.865 108.065L219.865 109.065H219.879H226.868L227.868 108.065V102.633H232.072C234 102.633 235.723 102.226 237.207 101.389C238.701 100.556 239.836 99.3859 240.648 97.9178L240.648 97.9178L240.654 97.9067C241.452 96.4201 241.848 94.7058 241.848 92.9271C241.848 91.1608 241.5 89.5246 240.822 88.0458C240.123 86.5212 239.037 85.31 237.587 84.4271C236.106 83.5258 234.294 83.1093 232.212 83.1093H219.865L218.865 84.1093V108.065ZM230.468 95.2757H227.868V90.467H230.663C231.476 90.467 231.922 90.709 232.187 91.0298C232.491 91.4152 232.704 92.0206 232.704 92.9271C232.704 93.7347 232.492 94.2936 232.153 94.6867C231.855 95.0296 231.365 95.2757 230.468 95.2757Z" fill="black" stroke="white" stroke-width="2" stroke-linejoin="bevel"/>
<path d="M241.016 107.707L241.949 109.065H249.232L250.165 108.426L251.885 103.973H257.732L259.491 108.432L260.421 109.065H267.704L268.637 107.707L259.457 83.7515L258.524 83.1093H251.129L250.196 83.7515L241.016 107.707ZM253.585 96.9499L254.813 93.7272L256.04 96.9499H253.585Z" fill="black" stroke="white" stroke-width="2" stroke-linejoin="bevel"/>
<path d="M273.298 83.1093L272.298 84.1093V108.037V108.065H273.298V109.037H280.287L281.287 108.037V102.047H282.255C282.682 102.047 282.869 102.129 282.923 102.165C282.987 102.206 283.132 102.343 283.278 102.676L283.278 102.677L285.803 108.439L286.719 109.037H294.002L294.918 107.636L292.169 101.358L292.161 101.34C291.905 100.785 291.661 100.307 291.431 99.9436C292.424 99.2838 293.259 98.4431 293.93 97.4259C294.854 96.0228 295.309 94.4753 295.309 92.6202C295.309 90.8162 294.962 89.1869 294.276 87.7519C293.574 86.2831 292.496 85.1258 291.063 84.3136C289.615 83.4932 287.827 83.1093 285.756 83.1093H273.298ZM283.971 94.7176H281.287V90.467H284.194C285.012 90.467 285.448 90.6828 285.693 90.9444C285.949 91.218 286.166 91.7201 286.166 92.6341C286.166 93.436 285.945 93.9076 285.64 94.1973C285.32 94.5011 284.816 94.7176 283.971 94.7176Z" fill="black" stroke="white" stroke-width="2" stroke-linejoin="bevel"/>
<path d="M304.135 108.065L305.135 109.065H312.125L313.125 108.065V90.3276H318.85L319.85 89.3276V84.1234L318.85 83.1234H298.397L297.397 84.1234V89.3276L298.397 90.3276H304.135V108.065Z" fill="black" stroke="white" stroke-width="2" stroke-linejoin="bevel"/>
<path d="M330.21 108.065L331.21 109.065H331.224H338.214L339.214 108.065V99.5535L347.705 84.6032L346.836 83.1093H339.539L338.657 83.6383L334.712 91.0272L330.767 83.6383L329.885 83.1093H322.588L321.719 84.6032L330.21 99.5535V108.065Z" fill="black" stroke="white" stroke-width="2" stroke-linejoin="bevel"/>
<path d="M360.387 108.121L361.387 109.121H385.048L386.048 108.121V101.368L385.048 100.368H378.296L377.296 101.368V103.744H369.153V95.6011H381.672L382.672 94.6011V92.2247H385.048L386.048 91.2247V84.4578L385.048 83.4578H382.672V81.0814L381.672 80.0814H364.763L363.763 81.0814V83.4578H361.387L360.387 84.4578V87.8343L361.387 88.8343H368.153L369.153 87.8343V85.4578H377.296V90.2247H364.763L363.763 91.2247V93.6011H361.387L360.387 94.6011V108.121Z" fill="#FF688C" stroke="white" stroke-width="2" stroke-linejoin="bevel"/>
<path d="M395.475 81.0816V83.458H393.098L392.098 84.458V104.745L393.098 105.745H395.475V108.121L396.475 109.121H413.384L414.384 108.121V105.745H416.76L417.76 104.745V84.458L416.76 83.458H414.384V81.0816L413.384 80.0816H396.475L395.475 81.0816ZM408.979 94.6152L409.007 94.6432V103.745H400.851V85.458H409.007V87.8065L408.979 87.8344V94.6152Z" fill="#FF688C" stroke="white" stroke-width="2" stroke-linejoin="bevel"/>
<path d="M423.81 108.121L424.81 109.121H448.472L449.472 108.121V101.368L448.472 100.368H441.719L440.719 101.368V103.745H432.576V95.6013H445.095L446.095 94.6013V92.2248H448.472L449.472 91.2248V84.458L448.472 83.458H446.095V81.0816L445.095 80.0816H428.186L427.186 81.0816V83.458H424.81L423.81 84.458V87.8344L424.81 88.8344H431.576L432.576 87.8344V85.458H440.719V90.2248H428.186L427.186 91.2248V93.6013H424.81L423.81 94.6013V108.121Z" fill="#FF688C" stroke="white" stroke-width="2" stroke-linejoin="bevel"/>
<path d="M458.898 108.121L459.898 109.121H476.807L477.807 108.121V105.745H480.183L481.183 104.745V94.6013L480.183 93.6013H477.807V91.2248L476.807 90.2248H464.288V85.458H476.807L477.807 84.458V81.0816L476.807 80.0816H456.521L455.521 81.0816V94.6013L456.521 95.6013H472.431V103.745H464.288V101.368L463.288 100.368H456.521L455.521 101.368V104.745L456.521 105.745H458.898V108.121Z" fill="#FF688C" stroke="white" stroke-width="2" stroke-linejoin="bevel"/>
<path d="M115.662 188.735H115.676H127.339C127.891 188.735 128.339 188.287 128.339 187.735V184.177C128.339 183.625 127.891 183.177 127.339 183.177H124.355C124.687 182.879 125.025 182.581 125.37 182.283L125.386 182.269C125.976 181.737 126.492 181.223 126.901 180.72C127.342 180.178 127.664 179.582 127.883 178.927C128.109 178.25 128.199 177.494 128.199 176.685C128.199 174.875 127.613 173.362 126.431 172.214C125.207 171.026 123.426 170.537 121.312 170.537C120.331 170.537 119.354 170.626 118.397 170.788C117.44 170.95 116.574 171.175 115.824 171.472C115.442 171.623 115.192 171.991 115.192 172.402V176.364C115.192 176.695 115.356 177.005 115.629 177.191C115.903 177.377 116.252 177.416 116.559 177.294C117.124 177.071 117.71 176.876 118.332 176.72C118.92 176.573 119.522 176.499 120.154 176.499C120.822 176.499 121.14 176.631 121.273 176.733C121.356 176.796 121.456 176.908 121.456 177.257C121.456 177.579 121.388 177.81 121.291 177.97C121.284 177.984 121.276 177.997 121.269 178.011C121.146 178.238 120.913 178.529 120.532 178.884C120.281 179.118 119.983 179.39 119.635 179.706C119.41 179.912 119.164 180.136 118.896 180.381C118.076 181.117 117.319 181.845 116.642 182.564C115.902 183.321 115.29 184.181 114.79 185.136C114.715 185.28 114.676 185.439 114.676 185.6V187.568C114.666 187.622 114.662 187.678 114.662 187.735C114.662 188.287 115.109 188.735 115.662 188.735Z" fill="black" stroke="white" stroke-width="2" stroke-linejoin="round"/>
<path d="M130.813 176.359H135.665L131.049 187.249C130.896 187.514 130.87 187.84 130.991 188.131C131.146 188.505 131.51 188.749 131.915 188.749H136.77C137.171 188.749 137.534 188.508 137.691 188.139L143.313 174.87C143.365 174.747 143.392 174.614 143.392 174.48V171.801C143.392 171.249 142.945 170.801 142.392 170.801H130.813C130.26 170.801 129.813 171.249 129.813 171.801V175.359C129.813 175.911 130.26 176.359 130.813 176.359Z" fill="black" stroke="white" stroke-width="2" stroke-linejoin="round"/>
<path d="M152.902 187.735C152.902 188.287 153.35 188.735 153.902 188.735H153.916H161.045C163.691 188.735 165.881 188.064 167.463 186.581C169.085 185.06 169.788 182.741 169.788 179.866C169.788 177.834 169.469 176.096 168.755 174.718L168.756 174.718L168.753 174.714C168.046 173.363 167.011 172.333 165.638 171.703C164.313 171.082 162.766 170.801 161.031 170.801H153.902C153.35 170.801 152.902 171.249 152.902 171.801V187.735ZM162.692 177.475L162.699 177.492C162.893 177.971 163.017 178.741 163.017 179.88C163.017 181.016 162.879 181.753 162.688 182.173C162.494 182.6 162.256 182.811 161.996 182.92C161.623 183.078 161.121 183.177 160.431 183.177H159.548V176.373H160.431C161.154 176.373 161.662 176.483 162.016 176.649C162.287 176.787 162.519 177.023 162.692 177.475Z" fill="black" stroke="white" stroke-width="2" stroke-linejoin="round"/>
<path d="M171.988 187.735C171.988 188.287 172.436 188.735 172.988 188.735C173.045 188.735 173.101 188.73 173.156 188.721H185.07C185.622 188.721 186.07 188.273 186.07 187.721V184.163C186.07 183.611 185.622 183.163 185.07 183.163H178.648V182.568H184.163C184.716 182.568 185.163 182.12 185.163 181.568V177.954C185.163 177.402 184.716 176.954 184.163 176.954H178.648V176.359H185.07C185.622 176.359 186.07 175.911 186.07 175.359V171.801C186.07 171.249 185.622 170.801 185.07 170.801H172.988C172.436 170.801 171.988 171.249 171.988 171.801V187.721V187.735Z" fill="black" stroke="white" stroke-width="2" stroke-linejoin="round"/>
<path d="M190.054 172.964L190.054 172.964C188.31 174.644 187.516 177.06 187.516 179.838C187.516 182.636 188.336 184.924 190.106 186.581C191.843 188.207 194.275 188.96 197.246 188.985C197.302 188.995 197.359 189 197.417 189C198.451 189 199.404 188.927 200.256 188.775C201.104 188.626 201.896 188.417 202.66 188.148C203.06 188.007 203.327 187.629 203.327 187.205V183.117C203.327 182.781 203.159 182.468 202.879 182.282C202.599 182.097 202.244 182.065 201.936 182.197C201.247 182.49 200.573 182.694 199.882 182.834C199.201 182.973 198.501 183.037 197.765 183.037C196.447 183.037 195.602 182.745 195.084 182.304C194.631 181.907 194.287 181.208 194.287 179.852C194.287 178.463 194.621 177.688 195.061 177.273C195.529 176.832 196.338 176.513 197.71 176.513C199.183 176.513 200.565 176.794 201.854 177.362C202.163 177.499 202.521 177.47 202.804 177.285C203.087 177.101 203.258 176.785 203.258 176.447V172.387C203.258 171.97 202.998 171.596 202.607 171.45C201.833 171.162 201.04 170.954 200.218 170.792C199.356 170.623 198.41 170.55 197.375 170.55C194.299 170.55 191.787 171.297 190.054 172.964Z" fill="black" stroke="white" stroke-width="2" stroke-linejoin="round"/>
<path d="M205.513 187.735C205.513 188.287 205.961 188.735 206.513 188.735C206.57 188.735 206.626 188.73 206.68 188.721H218.595C219.147 188.721 219.595 188.273 219.595 187.721V184.163C219.595 183.611 219.147 183.163 218.595 183.163H212.173V182.568H217.688C218.24 182.568 218.688 182.12 218.688 181.568V177.954C218.688 177.402 218.24 176.954 217.688 176.954H212.173V176.359H218.595C219.147 176.359 219.595 175.911 219.595 175.359V171.801C219.595 171.249 219.147 170.801 218.595 170.801H206.513C205.961 170.801 205.513 171.249 205.513 171.801V187.721V187.735Z" fill="black" stroke="white" stroke-width="2" stroke-linejoin="round"/>
<path d="M221.557 187.735C221.557 188.287 222.005 188.735 222.557 188.735H222.585H227.231C227.783 188.735 228.231 188.287 228.231 187.735V184.087L228.9 185.454C229.067 185.797 229.416 186.014 229.798 186.014H232.295C232.678 186.014 233.027 185.796 233.194 185.452L233.848 184.108V187.735C233.848 188.287 234.296 188.735 234.848 188.735H239.494C240.046 188.735 240.494 188.287 240.494 187.735V171.801C240.494 171.249 240.046 170.801 239.494 170.801H234.988C234.605 170.801 234.256 171.02 234.088 171.364L231.05 177.613L227.989 171.361C227.822 171.019 227.473 170.801 227.091 170.801H222.557C222.005 170.801 221.557 171.249 221.557 171.801V187.735Z" fill="black" stroke="white" stroke-width="2" stroke-linejoin="round"/>
<path d="M244.182 170.801C243.63 170.801 243.182 171.249 243.182 171.801V187.735V187.749C243.182 188.301 243.63 188.749 244.182 188.749H253.139C254.997 188.749 256.578 188.291 257.739 187.252C258.917 186.199 259.454 184.744 259.454 183.019C259.454 181.926 259.243 180.903 258.633 180.145C258.412 179.871 258.163 179.63 257.89 179.419C258.045 179.217 258.185 179.001 258.312 178.771C258.721 178.027 258.896 177.152 258.896 176.21C258.896 174.592 258.393 173.192 257.299 172.205C256.21 171.209 254.7 170.801 252.943 170.801H244.182ZM249.646 177.163V176.08H251.548C251.826 176.08 252.018 176.107 252.144 176.141C252.225 176.163 252.264 176.184 252.278 176.193C252.313 176.235 252.376 176.343 252.376 176.629C252.376 176.953 252.293 177.028 252.282 177.037C252.282 177.037 252.282 177.037 252.282 177.037C252.255 177.062 252.116 177.163 251.674 177.163H249.646ZM249.66 183.498V182.247H251.785C252.071 182.247 252.278 182.274 252.419 182.31C252.55 182.345 252.593 182.379 252.594 182.38C252.631 182.414 252.711 182.494 252.711 182.796C252.711 183.023 252.682 183.17 252.652 183.257C252.624 183.338 252.598 183.361 252.593 183.366C252.572 183.385 252.414 183.498 251.883 183.498H249.66Z" fill="black" stroke="white" stroke-width="2" stroke-linejoin="round"/>
<path d="M261.667 187.735C261.667 188.287 262.115 188.735 262.667 188.735C262.724 188.735 262.78 188.73 262.835 188.721H274.749C275.301 188.721 275.749 188.273 275.749 187.721V184.163C275.749 183.611 275.301 183.163 274.749 183.163H268.327V182.568H273.842C274.395 182.568 274.842 182.12 274.842 181.568V177.954C274.842 177.402 274.395 176.954 273.842 176.954H268.327V176.359H274.749C275.301 176.359 275.749 175.911 275.749 175.359V171.801C275.749 171.249 275.301 170.801 274.749 170.801H262.667C262.115 170.801 261.667 171.249 261.667 171.801V187.721V187.735Z" fill="black" stroke="white" stroke-width="2" stroke-linejoin="round"/>
<path d="M278.683 188.735H278.697H283.329C283.881 188.735 284.329 188.287 284.329 187.735V184.089H284.641C284.765 184.089 284.842 184.099 284.887 184.109C284.899 184.111 284.907 184.114 284.913 184.115C284.929 184.131 284.97 184.178 285.019 184.292L285.019 184.292L285.023 184.301L286.711 188.137C286.871 188.5 287.23 188.735 287.626 188.735H292.481C292.819 188.735 293.133 188.565 293.318 188.282C293.503 188 293.533 187.644 293.398 187.335L291.57 183.149L291.562 183.13C291.437 182.86 291.319 182.63 291.211 182.436C291.79 182.007 292.294 181.481 292.703 180.848C293.366 179.858 293.677 178.754 293.677 177.466C293.677 176.235 293.461 175.086 292.96 174.067C292.457 173.043 291.705 172.22 290.686 171.643C289.655 171.058 288.396 170.801 286.984 170.801H278.697C278.145 170.801 277.697 171.249 277.697 171.801V187.567C277.688 187.622 277.683 187.678 277.683 187.735C277.683 188.287 278.131 188.735 278.683 188.735ZM285.799 178.517H284.357V176.359H285.952C286.442 176.359 286.63 176.487 286.709 176.572C286.801 176.67 286.933 176.908 286.933 177.466C286.933 177.921 286.816 178.133 286.688 178.259C286.542 178.391 286.281 178.517 285.799 178.517Z" fill="black" stroke="white" stroke-width="2" stroke-linejoin="round"/>
<path d="M303.922 188.735H303.936H315.599C316.151 188.735 316.599 188.287 316.599 187.735V184.177C316.599 183.625 316.151 183.177 315.599 183.177H312.615C312.947 182.879 313.285 182.581 313.63 182.283L313.646 182.269C314.236 181.737 314.752 181.223 315.161 180.72C315.602 180.178 315.924 179.582 316.143 178.927C316.369 178.25 316.459 177.494 316.459 176.685C316.459 174.875 315.873 173.362 314.691 172.214C313.467 171.026 311.686 170.537 309.572 170.537C308.591 170.537 307.614 170.626 306.657 170.788C305.701 170.95 304.834 171.175 304.084 171.472C303.702 171.623 303.452 171.991 303.452 172.402V176.364C303.452 176.695 303.616 177.005 303.89 177.191C304.163 177.377 304.512 177.416 304.819 177.294C305.384 177.071 305.97 176.876 306.592 176.72C307.18 176.573 307.783 176.499 308.414 176.499C309.082 176.499 309.4 176.631 309.534 176.733C309.616 176.796 309.716 176.908 309.716 177.257C309.716 177.579 309.648 177.81 309.552 177.97C309.544 177.984 309.536 177.997 309.529 178.011C309.406 178.238 309.173 178.529 308.792 178.884C308.541 179.118 308.242 179.39 307.895 179.706C307.67 179.912 307.424 180.136 307.156 180.381C306.336 181.117 305.579 181.845 304.902 182.564C304.162 183.321 303.55 184.181 303.05 185.136C302.975 185.28 302.936 185.439 302.936 185.6V187.568C302.926 187.622 302.922 187.678 302.922 187.735C302.922 188.287 303.369 188.735 303.922 188.735Z" fill="black" stroke="white" stroke-width="2" stroke-linejoin="round"/>
<path d="M322.042 187.909C323.356 188.648 325.022 188.986 326.955 188.986C329.839 188.986 332.145 188.235 333.585 186.489C334.959 184.835 335.572 182.551 335.572 179.768C335.572 176.986 334.959 174.686 333.583 173.032C332.144 171.301 329.84 170.55 326.955 170.55C325.015 170.55 323.357 170.871 322.034 171.632C320.723 172.386 319.769 173.477 319.17 174.9C318.586 176.274 318.323 177.91 318.323 179.768C318.323 181.627 318.586 183.262 319.17 184.636C319.766 186.054 320.72 187.165 322.042 187.909ZM328.829 179.768C328.829 181.104 328.626 181.95 328.343 182.436C328.139 182.768 327.778 183.024 326.955 183.024C326.119 183.024 325.759 182.76 325.573 182.446C325.283 181.94 325.081 181.114 325.081 179.768C325.081 178.398 325.276 177.565 325.563 177.092C325.761 176.767 326.114 176.513 326.955 176.513C327.807 176.513 328.158 176.773 328.339 177.08C328.623 177.563 328.829 178.424 328.829 179.768Z" fill="black" stroke="white" stroke-width="2" stroke-linejoin="round"/>
<path d="M338.27 188.735H338.283H349.947C350.499 188.735 350.947 188.287 350.947 187.735V184.177C350.947 183.625 350.499 183.177 349.947 183.177H346.963C347.295 182.879 347.633 182.581 347.978 182.283L347.994 182.269C348.584 181.737 349.1 181.223 349.509 180.72C349.95 180.178 350.272 179.582 350.491 178.927C350.716 178.25 350.807 177.494 350.807 176.685C350.807 174.883 350.24 173.365 349.036 172.212C347.812 171.025 346.032 170.537 343.92 170.537C342.939 170.537 341.962 170.626 341.005 170.788C340.048 170.95 339.182 171.175 338.432 171.472C338.05 171.623 337.8 171.991 337.8 172.402V176.364C337.8 176.695 337.964 177.005 338.237 177.191C338.511 177.377 338.859 177.416 339.167 177.294C339.732 177.071 340.318 176.876 340.94 176.72C341.528 176.573 342.13 176.499 342.762 176.499C343.43 176.499 343.748 176.631 343.881 176.733C343.964 176.796 344.064 176.908 344.064 177.257C344.064 177.579 343.996 177.81 343.899 177.97C343.891 177.984 343.884 177.997 343.876 178.011C343.754 178.238 343.52 178.529 343.14 178.884C342.889 179.118 342.591 179.39 342.244 179.706C342.018 179.911 341.772 180.136 341.504 180.381C340.684 181.117 339.927 181.845 339.25 182.564C338.51 183.321 337.898 184.181 337.398 185.136C337.323 185.28 337.283 185.439 337.283 185.6V187.568C337.274 187.622 337.27 187.678 337.27 187.735C337.27 188.287 337.717 188.735 338.27 188.735Z" fill="black" stroke="white" stroke-width="2" stroke-linejoin="round"/>
<path d="M366.07 187.749V185.749H366.507C367.06 185.749 367.507 185.301 367.507 184.749V180.982C367.507 180.43 367.06 179.982 366.507 179.982H366.07V171.801C366.07 171.249 365.623 170.801 365.07 170.801H361.038C360.734 170.801 360.446 170.94 360.256 171.179L352.387 181.071C352.247 181.248 352.17 181.467 352.17 181.693V184.735C352.17 185.287 352.618 185.735 353.17 185.735H359.425V187.582C359.394 187.763 359.413 187.954 359.487 188.131C359.641 188.505 360.006 188.749 360.411 188.749H365.07C365.623 188.749 366.07 188.301 366.07 187.749ZM360.234 179.625V180.177H359.776L360.234 179.625Z" fill="black" stroke="white" stroke-width="2" stroke-linejoin="round"/>
</svg>
