<svg width="157" height="62" viewBox="0 0 157 62" fill="none" xmlns="http://www.w3.org/2000/svg">
<mask id="path-1-outside-1_61_67" maskUnits="userSpaceOnUse" x="97.1416" y="0" width="60" height="62" fill="black">
<rect fill="white" x="97.1416" width="60" height="62"/>
<path d="M154.601 59.5351L136.434 2H117.361L99.1416 59.5351H117.697L126.891 24.0661L136.434 59.4833H154.666"/>
</mask>
<path d="M154.601 59.5351L136.434 2H117.361L99.1416 59.5351H117.697L126.891 24.0661L136.434 59.4833H154.666" fill="#211E1F"/>
<path d="M152.694 60.1373C153.027 61.1906 154.15 61.7748 155.203 61.4423C156.257 61.1097 156.841 59.9862 156.508 58.9329L152.694 60.1373ZM136.434 2L138.341 1.39779C138.078 0.565707 137.307 0 136.434 0V2ZM117.361 2V0C116.489 0 115.717 0.564937 115.454 1.39623L117.361 2ZM99.1416 59.5351L97.2349 58.9313C97.0424 59.5391 97.1513 60.2023 97.528 60.7167C97.9047 61.2311 98.504 61.5351 99.1416 61.5351V59.5351ZM117.697 59.5351V61.5351C118.608 61.5351 119.405 60.919 119.633 60.0369L117.697 59.5351ZM126.891 24.0661L128.822 23.5458C128.586 22.6693 127.789 22.0618 126.881 22.0661C125.974 22.0705 125.183 22.6856 124.955 23.5643L126.891 24.0661ZM136.434 59.4833L134.503 60.0036C134.738 60.8767 135.53 61.4833 136.434 61.4833V59.4833ZM154.666 61.4833C155.771 61.4833 156.666 60.5878 156.666 59.4833C156.666 58.3787 155.771 57.4833 154.666 57.4833V61.4833ZM156.508 58.9329L138.341 1.39779L134.527 2.60221L152.694 60.1373L156.508 58.9329ZM136.434 0H117.361V4H136.434V0ZM115.454 1.39623L97.2349 58.9313L101.048 60.1388L119.267 2.60377L115.454 1.39623ZM99.1416 61.5351H117.697V57.5351H99.1416V61.5351ZM119.633 60.0369L128.827 24.5679L124.955 23.5643L115.761 59.0333L119.633 60.0369ZM124.96 24.5865L134.503 60.0036L138.365 58.9629L128.822 23.5458L124.96 24.5865ZM136.434 61.4833H154.666V57.4833H136.434V61.4833Z" fill="white" mask="url(#path-1-outside-1_61_67)"/>
<mask id="path-3-outside-2_61_67" maskUnits="userSpaceOnUse" x="46.0973" y="-0.844788" width="60" height="63" fill="black">
<rect fill="white" x="46.0973" y="-0.844788" width="60" height="63"/>
<path d="M48.175 2.15521L66.3292 59.6903H85.4157L103.622 2.15521H85.0661L75.8725 37.6112L66.3292 2.19406H48.0973"/>
</mask>
<path d="M48.175 2.15521L66.3292 59.6903H85.4157L103.622 2.15521H85.0661L75.8725 37.6112L66.3292 2.19406H48.0973" fill="#DD223D"/>
<path d="M50.0823 1.5534C49.75 0.50002 48.6266 -0.0844679 47.5732 0.247906C46.5198 0.58028 45.9354 1.70365 46.2677 2.75703L50.0823 1.5534ZM66.3292 59.6903L64.4219 60.2921C64.6845 61.1244 65.4565 61.6903 66.3292 61.6903V59.6903ZM85.4157 59.6903V61.6903C86.2878 61.6903 87.0594 61.1252 87.3225 60.2937L85.4157 59.6903ZM103.622 2.15521L105.529 2.75859C105.721 2.1508 105.612 1.48773 105.235 0.973425C104.858 0.459124 104.259 0.155212 103.622 0.155212V2.15521ZM85.0661 2.15521V0.155212C84.1549 0.155212 83.3588 0.77116 83.1301 1.65322L85.0661 2.15521ZM75.8725 37.6112L73.9413 38.1316C74.1775 39.008 74.9743 39.6155 75.882 39.6112C76.7897 39.6069 77.5806 38.9918 77.8084 38.1132L75.8725 37.6112ZM66.3292 2.19406L68.2603 1.67371C68.0251 0.800683 67.2334 0.194061 66.3292 0.194061V2.19406ZM48.0973 0.194061C46.9928 0.194061 46.0973 1.08949 46.0973 2.19406C46.0973 3.29863 46.9928 4.19406 48.0973 4.19406V0.194061ZM46.2677 2.75703L64.4219 60.2921L68.2365 59.0885L50.0823 1.5534L46.2677 2.75703ZM66.3292 61.6903H85.4157V57.6903H66.3292V61.6903ZM87.3225 60.2937L105.529 2.75859L101.715 1.55183L83.5089 59.0869L87.3225 60.2937ZM103.622 0.155212H85.0661V4.15521H103.622V0.155212ZM83.1301 1.65322L73.9365 37.1092L77.8084 38.1132L87.0021 2.6572L83.1301 1.65322ZM77.8036 37.0909L68.2603 1.67371L64.3981 2.71441L73.9413 38.1316L77.8036 37.0909ZM66.3292 0.194061H48.0973V4.19406H66.3292V0.194061Z" fill="white" mask="url(#path-3-outside-2_61_67)"/>
<path d="M120.484 59.232C120.406 59.5316 120.472 59.8503 120.661 60.0951C120.851 60.3399 121.143 60.4833 121.452 60.4833H132.692C133.003 60.4833 133.296 60.3385 133.485 60.0915C133.675 59.8446 133.738 59.5236 133.657 59.2232L127.934 37.9729C127.816 37.5347 127.418 37.2309 126.964 37.233C126.51 37.235 126.114 37.5425 126 37.9817L120.484 59.232Z" fill="#211E1F" stroke="white" stroke-width="2" stroke-linecap="round" stroke-linejoin="round"/>
<path d="M0.999954 18.8606C0.999954 19.4129 1.44767 19.8606 1.99995 19.8606H40.7815C41.3338 19.8606 41.7815 19.4129 41.7815 18.8606V2.19446C41.7815 1.64217 41.3338 1.19446 40.7815 1.19446H1.99995C1.44767 1.19446 0.999954 1.64217 0.999954 2.19446V18.8606ZM0.999954 59.6907C0.999954 60.243 1.44767 60.6907 1.99995 60.6907H40.7815C41.3338 60.6907 41.7815 60.243 41.7815 59.6907V43.0246C41.7815 42.4723 41.3338 42.0246 40.7815 42.0246H20.7916V40.2692H40.7815C41.3338 40.2692 41.7815 39.8215 41.7815 39.2692V22.603C41.7815 22.0507 41.3338 21.603 40.7815 21.603H1.99995C1.44767 21.603 0.999954 22.0507 0.999954 22.603V43.0116V43.0246V59.6907Z" fill="#211E1F" stroke="white" stroke-width="2" stroke-linecap="round" stroke-linejoin="round"/>
</svg>
