<svg width="572" height="128" viewBox="0 0 572 128" fill="none" xmlns="http://www.w3.org/2000/svg">
<path d="M537.908 52.5211H33.3507V92.1742H537.908V52.5211Z" fill="white"/>
<path d="M64.0343 82.2067V72.8227H59.3509V82.2067H54.6675V63.4386H57.0008V61.0884H66.3843V63.4386H68.7343V82.2067H64.0343ZM64.0343 63.4386H59.3509V70.4725H64.0343V63.4386Z" fill="#FF688C"/>
<path d="M79.7678 82.2067V79.8565H77.4178V68.1389H75.0844V65.7887H77.4178V61.105H82.1012V65.7887H84.4512V68.1389H82.1012V79.8565H84.4512V82.2067H79.7678Z" fill="#FF688C"/>
<path d="M95.5013 82.2067V79.8565H93.1513V68.1389H90.8179V65.7887H93.1513V61.105H97.8347V65.7887H100.185V68.1389H97.8347V79.8565H100.185V82.2067H95.5013Z" fill="#FF688C"/>
<path d="M118.252 79.8564V82.2066H108.868V79.8564H106.535V68.1388H108.868V65.7886H118.252V68.1388H120.602V75.1727H111.218V79.8564H118.252ZM115.918 68.1388H111.235V72.8058H115.918V68.1388ZM118.252 79.8564V77.5062H120.602V79.8564H118.252Z" fill="#FF688C"/>
<path d="M136.335 82.2069V68.1391H131.652V82.2069H126.968V65.7723H138.685V68.1225H141.035V82.1902H136.335V82.2069Z" fill="#FF688C"/>
<path d="M152.069 82.2067V79.8565H149.719V68.1389H147.385V65.7887H149.719V61.105H154.402V65.7887H156.752V68.1389H154.402V79.8565H156.752V82.2067H152.069Z" fill="#FF688C"/>
<path d="M163.102 63.4386V61.0884H167.786V63.4386H163.102ZM163.102 82.2067V65.7721H167.786V82.2067H163.102Z" fill="#FF688C"/>
<path d="M185.853 77.5229V79.8564H183.519V82.2066H178.836V79.8564H176.486V77.5229H174.152V65.7886H178.836V77.5229H183.519V65.7886H188.219V77.5229H185.869H185.853Z" fill="#FF688C"/>
<path d="M206.269 79.8564V82.2066H196.886V79.8564H194.553V68.1388H196.886V65.7886H206.269V68.1388H208.619V75.1727H199.236V79.8564H206.269ZM203.936 68.1388H199.253V72.8058H203.936V68.1388ZM206.269 79.8564V77.5062H208.619V79.8564H206.269Z" fill="#FF688C"/>
<path d="M414.506 79.8565V82.2067H405.123V79.8565H402.789V63.4386H405.123V61.0884H414.506V63.4386H416.856V65.7721H414.506V63.4386H407.473V79.8565H414.506ZM414.506 79.8565V77.5063H416.856V79.8565H414.506Z" fill="#FF688C"/>
<path d="M432.59 79.8566V82.2068H423.206V79.8566H420.873V68.1391H423.206V65.7889H432.59V68.1391H434.94V79.8566H432.59ZM430.256 68.1391H425.573V79.8566H430.256V68.1391Z" fill="#FF688C"/>
<path d="M460.04 82.2068V68.139H455.356V82.2068H450.656V68.139H445.973V82.2068H441.29V65.7722H462.39V68.1223H464.74V82.1901H460.056L460.04 82.2068Z" fill="#FF688C"/>
<path d="M482.807 79.8566V82.2068H475.774V86.8905H471.09V65.7722H482.807V68.1223H485.157V79.8399H482.807V79.8566ZM480.474 68.139H475.79V79.8566H480.474V68.139Z" fill="#FF688C"/>
<path d="M491.507 82.2066V61.0883H496.191V82.2066H491.507Z" fill="#FF688C"/>
<path d="M514.257 86.8898V89.24H504.89V86.8898H502.54V84.5397H504.89V86.8898H511.924V82.2228H504.89V79.8726H502.54V65.8049H507.224V79.8726H511.907V65.8049H516.607V86.9065H514.257V86.8898Z" fill="#FF688C"/>
<path d="M278.938 80.2896V82.6398H267.221V61.5215H278.938V63.8717H281.288V70.9056H278.938V73.2557H281.288V80.2896H278.938ZM276.604 63.8717H271.921V70.9056H276.604V63.8717ZM276.604 73.2557H271.921V80.2896H276.604V73.2557Z" fill="#FF688C"/>
<path d="M289.972 82.6402V80.2901H287.638V66.2223H292.322V80.2901H297.005V66.2223H301.705V82.6569H289.972V82.6402Z" fill="#FF688C"/>
<path d="M308.055 63.8717V61.5215H312.738V63.8717H308.055ZM308.055 82.6398V66.2052H312.738V82.6398H308.055Z" fill="#FF688C"/>
<path d="M319.088 82.6398V61.5215H323.772V82.6398H319.088Z" fill="#FF688C"/>
<path d="M332.455 82.6401V80.2899H330.122V68.5723H332.455V66.2221H339.506V61.5385H344.206V82.6568H332.472L332.455 82.6401ZM339.506 68.5723H334.822V80.2899H339.506V68.5723Z" fill="#FF688C"/>
<path d="M240.504 71.3557H235.337V76.5227H240.504V71.3557Z" fill="#FF688C"/>
<path d="M376.472 71.3557H371.306V76.5227H376.472V71.3557Z" fill="#FF688C"/>
<path d="M0 32.2361V3.61719H7.11676L17.9169 18.7684V3.61719H26.267V32.2361H19.1169L8.36678 17.1349V32.2361H0Z" fill="black"/>
<path d="M33.817 32.2363V3.61737H55.5007V10.0179H42.1671V14.6849H53.8506V21.1687H42.1671V25.8358H55.5007V32.2363H33.817Z" fill="black"/>
<path d="M67.5012 32.2363L60.8345 3.61737H69.0012L72.2513 18.7686L75.4013 7.93438V3.61737H82.2514L86.6015 18.8186L90.0182 3.61737H98.185L91.5682 32.2363H84.0181L79.7014 17.4351L75.0347 32.2363H67.4846H67.5012Z" fill="black"/>
<path d="M126.935 32.2363V21.7521L116.635 3.61737H125.335L131.102 14.4182L136.885 3.61737H145.585L135.285 21.7521V32.2363H126.935Z" fill="black"/>
<path d="M151.369 32.2363V3.61737H173.053V10.0179H159.719V14.6849H171.402V21.1687H159.719V25.8358H173.053V32.2363H151.369Z" fill="black"/>
<path d="M178.386 32.2363L189.353 3.61737H198.186L209.153 32.2363H200.453L198.053 26.1525H189.436L187.086 32.2363H178.386ZM190.553 20.152H196.953L193.753 11.7513L190.553 20.152Z" fill="black"/>
<path d="M215.836 32.2363V3.61737H230.72C233.053 3.61737 234.97 4.05074 236.47 4.90081C237.97 5.75088 239.087 6.95096 239.82 8.48441C240.553 10.0179 240.937 11.7847 240.937 13.7848C240.937 15.785 240.453 17.4018 239.487 18.8686C238.52 20.3353 237.237 21.4521 235.637 22.2188C235.953 22.4855 236.237 22.8022 236.487 23.1689C236.72 23.5356 236.987 24.0523 237.287 24.7023L240.57 32.2029H231.87L228.853 25.3191C228.62 24.7857 228.32 24.4023 227.986 24.1856C227.653 23.969 227.17 23.8523 226.536 23.8523H224.186V32.2029H215.836V32.2363ZM224.186 17.4851H228.586C229.803 17.4851 230.737 17.1684 231.403 16.535C232.07 15.9017 232.403 14.9849 232.403 13.8015C232.403 11.2846 231.22 10.0179 228.853 10.0179H224.186V17.4851Z" fill="black"/>
<path d="M260.27 32.2363V3.61737H275.021C277.354 3.61737 279.287 4.08408 280.821 5.01749C282.354 5.95089 283.487 7.21765 284.221 8.81778C284.954 10.4179 285.337 12.2014 285.337 14.1515C285.337 16.1017 284.904 17.9518 284.054 19.5353C283.187 21.1021 281.987 22.3355 280.404 23.2189C278.837 24.1023 276.987 24.5523 274.854 24.5523H268.637V32.2363H260.287H260.27ZM268.62 18.1518H272.937C274.237 18.1518 275.204 17.7851 275.854 17.0351C276.487 16.3017 276.804 15.3349 276.804 14.1515C276.804 12.8848 276.504 11.868 275.921 11.1346C275.321 10.4012 274.404 10.0179 273.17 10.0179H268.637V18.1518H268.62Z" fill="black"/>
<path d="M286.654 32.2363L297.621 3.61737H306.454L317.421 32.2363H308.721L306.321 26.1525H297.704L295.354 32.2363H286.654ZM298.821 20.152H305.221L302.021 11.7513L298.821 20.152Z" fill="black"/>
<path d="M324.104 32.2363V3.61737H338.988C341.321 3.61737 343.238 4.05074 344.738 4.90081C346.238 5.75088 347.355 6.95096 348.088 8.48441C348.821 10.0179 349.205 11.7847 349.205 13.7848C349.205 15.785 348.721 17.4018 347.755 18.8686C346.788 20.3353 345.505 21.4521 343.905 22.2188C344.221 22.4855 344.505 22.8022 344.755 23.1689C344.988 23.5356 345.255 24.0523 345.555 24.7023L348.838 32.2029H340.138L337.121 25.3191C336.888 24.7857 336.588 24.4023 336.255 24.1856C335.921 23.969 335.438 23.8523 334.805 23.8523H332.455V32.2029H324.104V32.2363ZM332.455 17.4851H336.855C338.071 17.4851 339.005 17.1684 339.671 16.535C340.338 15.9017 340.671 14.9849 340.671 13.8015C340.671 11.2846 339.488 10.0179 337.121 10.0179H332.455V17.4851Z" fill="black"/>
<path d="M362.138 32.2365V9.85142H354.088V3.63428H378.522V9.85142H370.488V32.2365H362.138Z" fill="black"/>
<path d="M393.289 32.2363V21.7521L382.989 3.61737H391.706L397.472 14.4182L403.239 3.61737H411.956L401.656 21.7521V32.2363H393.306H393.289Z" fill="black"/>
<path d="M429.339 32.3025V16.1513H433.373V12.1176H449.54V4.03364H437.423V8.06729H429.339V4.03364H433.373V0H453.573V4.03364H457.606V12.1176H453.573V16.1513H437.423V28.2689H449.54V24.2352H457.606V32.3025H429.339Z" fill="white"/>
<path d="M491.457 4.03389V0.000244141H471.257V4.03389H467.223V28.2691H471.257V32.3027H491.457V28.2691H495.49V4.03389H491.457ZM487.424 8.06753H487.39V16.1682H487.424V28.2691H475.307V27.3857H475.29V4.75061H475.307V4.03389H487.424V8.06753Z" fill="white"/>
<path d="M505.107 32.3027V16.1515H509.141V12.1178H525.308V4.03389H513.191V8.06753H505.107V4.03389H509.141V0.000244141H529.341V4.03389H533.374V12.1178H529.341V16.1515H513.191V28.2691H525.308V24.2355H533.374V32.3027H505.107Z" fill="white"/>
<path d="M547.024 32.3027V28.2691H542.991V24.2355H551.075V28.2691H563.191V16.1515H542.991V0.000244141H567.225V4.03389H551.075V12.1178H567.225V16.1515H571.258V28.2691H567.225V32.3027H547.024Z" fill="white"/>
<path d="M135.802 127.413V124.863C136.352 123.813 137.019 122.88 137.819 122.063C138.602 121.229 139.485 120.379 140.452 119.513C141.252 118.779 141.919 118.179 142.419 117.712C142.919 117.246 143.302 116.796 143.535 116.362C143.785 115.946 143.902 115.446 143.902 114.896C143.902 113.495 142.985 112.795 141.152 112.795C140.302 112.795 139.485 112.895 138.685 113.095C137.885 113.295 137.135 113.545 136.419 113.829V109.095C137.219 108.778 138.169 108.528 139.252 108.345C140.335 108.162 141.435 108.062 142.535 108.062C144.902 108.062 146.669 108.612 147.819 109.729C148.969 110.845 149.569 112.329 149.569 114.212C149.569 115.096 149.469 115.862 149.252 116.512C149.035 117.162 148.719 117.746 148.285 118.279C147.852 118.813 147.285 119.379 146.602 119.996C145.985 120.529 145.385 121.063 144.802 121.596C144.219 122.129 143.735 122.646 143.385 123.163H149.735V127.413H135.785H135.802Z" fill="white"/>
<path d="M155.219 127.413L161.486 112.628H153.885V108.378H167.719V111.578L161.002 127.429H155.202L155.219 127.413Z" fill="white"/>
<path d="M181.469 127.413V108.378H189.986C191.936 108.378 193.603 108.695 194.986 109.345C196.37 109.978 197.42 111.011 198.153 112.412C198.886 113.828 199.253 115.695 199.253 118.012C199.253 121.279 198.453 123.662 196.853 125.163C195.253 126.663 192.969 127.413 190.003 127.413H181.486H181.469ZM187.019 123.162H189.269C190.203 123.162 190.969 123.029 191.603 122.762C192.236 122.496 192.719 121.996 193.053 121.262C193.386 120.529 193.553 119.445 193.553 118.029C193.553 116.612 193.403 115.512 193.086 114.728C192.786 113.945 192.319 113.412 191.686 113.095C191.053 112.795 190.253 112.645 189.269 112.645H187.019V123.162Z" fill="white"/>
<path d="M204.27 127.413V108.378H218.704V112.628H209.837V115.729H217.62V120.046H209.837V123.146H218.704V127.396H204.27V127.413Z" fill="white"/>
<path d="M233.437 127.713C229.987 127.713 227.353 126.863 225.536 125.163C223.72 123.463 222.82 121.079 222.82 117.979C222.82 114.879 223.703 112.345 225.486 110.628C227.253 108.928 229.903 108.078 233.403 108.078C234.587 108.078 235.637 108.161 236.57 108.345C237.503 108.528 238.387 108.761 239.237 109.078V113.929C237.537 113.178 235.72 112.812 233.803 112.812C232.003 112.812 230.686 113.228 229.82 114.045C228.953 114.862 228.52 116.179 228.52 117.995C228.52 119.812 228.986 121.046 229.886 121.829C230.803 122.613 232.137 122.996 233.87 122.996C234.82 122.996 235.737 122.913 236.637 122.729C237.537 122.546 238.42 122.279 239.32 121.896V126.78C238.47 127.08 237.587 127.313 236.637 127.48C235.703 127.646 234.637 127.73 233.453 127.73L233.437 127.713Z" fill="white"/>
<path d="M244.32 127.413V108.378H258.754V112.628H249.887V115.729H257.67V120.046H249.887V123.146H258.754V127.396H244.32V127.413Z" fill="white"/>
<path d="M263.487 127.413V108.378H268.904L273.637 118.045L278.337 108.378H283.721V127.413H278.171V117.895L275.121 124.163H272.137L269.07 117.895V127.413H263.52H263.487Z" fill="white"/>
<path d="M289.321 127.413V108.378H299.788C301.721 108.378 303.188 108.828 304.188 109.745C305.188 110.645 305.705 111.962 305.705 113.645C305.705 114.628 305.521 115.462 305.155 116.129C304.788 116.795 304.305 117.329 303.721 117.729C304.521 118.045 305.171 118.495 305.655 119.095C306.138 119.695 306.371 120.596 306.371 121.779C306.371 123.579 305.821 124.963 304.721 125.946C303.621 126.929 302.055 127.429 300.021 127.429H289.321V127.413ZM294.671 115.979H298.271C299.638 115.979 300.305 115.362 300.305 114.145C300.305 113.528 300.138 113.078 299.821 112.762C299.488 112.445 298.921 112.295 298.121 112.295H294.655V115.995L294.671 115.979ZM294.671 123.546H298.521C299.271 123.546 299.821 123.396 300.171 123.079C300.521 122.762 300.705 122.246 300.705 121.512C300.705 120.896 300.521 120.446 300.171 120.129C299.821 119.812 299.221 119.662 298.405 119.662H294.671V123.562V123.546Z" fill="white"/>
<path d="M311.405 127.413V108.378H325.838V112.628H316.971V115.729H324.755V120.046H316.971V123.146H325.838V127.396H311.405V127.413Z" fill="white"/>
<path d="M330.555 127.413V108.378H340.455C342.005 108.378 343.288 108.661 344.288 109.228C345.288 109.795 346.022 110.595 346.522 111.612C347.022 112.628 347.255 113.812 347.255 115.145C347.255 116.479 346.938 117.562 346.288 118.529C345.655 119.512 344.788 120.246 343.738 120.762C343.955 120.946 344.138 121.146 344.305 121.396C344.455 121.646 344.638 121.979 344.838 122.412L347.022 127.413H341.222L339.205 122.829C339.055 122.479 338.855 122.229 338.622 122.079C338.388 121.929 338.072 121.862 337.655 121.862H336.088V127.413H330.538H330.555ZM336.105 117.595H339.038C339.838 117.595 340.472 117.379 340.922 116.962C341.372 116.529 341.588 115.929 341.588 115.145C341.588 113.478 340.805 112.628 339.222 112.628H336.122V117.595H336.105Z" fill="white"/>
<path d="M360.705 127.413V124.863C361.255 123.813 361.922 122.88 362.722 122.063C363.505 121.229 364.389 120.379 365.355 119.513C366.155 118.779 366.822 118.179 367.322 117.712C367.822 117.246 368.206 116.796 368.439 116.362C368.689 115.946 368.806 115.446 368.806 114.896C368.806 113.495 367.889 112.795 366.055 112.795C365.205 112.795 364.389 112.895 363.589 113.095C362.789 113.295 362.039 113.545 361.322 113.829V109.095C362.122 108.778 363.072 108.528 364.155 108.345C365.239 108.162 366.339 108.062 367.439 108.062C369.806 108.062 371.572 108.612 372.722 109.729C373.872 110.845 374.472 112.329 374.472 114.212C374.472 115.096 374.372 115.862 374.156 116.512C373.939 117.162 373.622 117.746 373.189 118.279C372.756 118.813 372.189 119.379 371.506 119.996C370.889 120.529 370.289 121.063 369.706 121.596C369.122 122.129 368.639 122.646 368.289 123.163H374.639V127.413H360.689H360.705Z" fill="white"/>
<path d="M388.206 127.713C386.022 127.713 384.256 127.33 382.922 126.58C381.589 125.829 380.622 124.713 380.006 123.246C379.389 121.796 379.089 120.012 379.089 117.895C379.089 115.779 379.389 113.995 380.006 112.545C380.622 111.078 381.589 109.978 382.922 109.211C384.256 108.445 386.006 108.078 388.206 108.078C391.472 108.078 393.806 108.928 395.206 110.612C396.606 112.295 397.306 114.729 397.306 117.895C397.306 121.062 396.606 123.479 395.206 125.163C393.806 126.863 391.472 127.713 388.206 127.713ZM388.206 122.979C389.489 122.979 390.372 122.546 390.889 121.696C391.389 120.846 391.639 119.579 391.639 117.895C391.639 116.212 391.389 114.929 390.889 114.079C390.389 113.228 389.489 112.812 388.206 112.812C386.922 112.812 386.039 113.228 385.522 114.079C385.006 114.929 384.772 116.195 384.772 117.895C384.772 119.596 385.022 120.829 385.522 121.696C386.022 122.546 386.922 122.979 388.206 122.979Z" fill="white"/>
<path d="M401.739 127.413V124.863C402.289 123.813 402.956 122.88 403.756 122.063C404.539 121.229 405.423 120.379 406.389 119.513C407.189 118.779 407.856 118.179 408.356 117.712C408.856 117.246 409.24 116.796 409.473 116.362C409.723 115.946 409.84 115.446 409.84 114.896C409.84 113.495 408.923 112.795 407.089 112.795C406.239 112.795 405.423 112.895 404.623 113.095C403.823 113.295 403.073 113.545 402.356 113.829V109.095C403.156 108.778 404.106 108.528 405.189 108.345C406.273 108.162 407.373 108.062 408.473 108.062C410.84 108.062 412.606 108.612 413.756 109.729C414.923 110.845 415.506 112.329 415.506 114.212C415.506 115.096 415.406 115.862 415.19 116.512C414.973 117.162 414.656 117.746 414.223 118.279C413.79 118.813 413.223 119.379 412.54 119.996C411.923 120.529 411.323 121.063 410.74 121.596C410.14 122.129 409.673 122.646 409.323 123.163H415.673V127.413H401.723H401.739Z" fill="white"/>
<path d="M428.19 127.413V123.829H419.523V120.196L428.923 108.378H433.74V119.345H435.457V123.846H433.74V127.429H428.173L428.19 127.413ZM424.873 119.579H429.157V114.412L424.873 119.579Z" fill="white"/>
</svg>
