<svg width="364" height="187" viewBox="0 0 364 187" fill="none" xmlns="http://www.w3.org/2000/svg">
<path d="M357.318 97.1483H6.68199V180.164H357.318V97.1483Z" fill="#FF688C"/>
<path d="M363.425 186.271H0.575317V91.042H363.425V186.271ZM12.7885 174.058H351.211V103.255H12.7885V174.058Z" fill="#494949"/>
<path d="M37.1866 103.818H12.8165V174.002H37.1866V103.818Z" fill="white"/>
<path d="M191.427 100.948L179.467 98.2741C179.186 98.2178 151.326 91.9424 122.398 81.5584C82.4655 67.2065 59.4462 51.9823 53.9587 36.3359C51.9888 30.7077 51.2572 21.9559 59.0241 12.3317C65.4121 4.39593 73.5448 0.568764 83.2253 0.990878C124.761 2.76376 182.169 87.1866 184.589 90.7886L191.455 100.948H191.427ZM81.8464 10.6995C75.7961 10.6995 70.8151 13.2322 66.6221 18.4383C62.5417 23.5036 61.4442 28.1469 63.1608 33.0997C71.181 56.0064 133.795 76.5493 168.999 85.6951C148.878 58.3421 109.312 11.8533 82.775 10.7276C82.4655 10.7276 82.1278 10.7276 81.8183 10.7276L81.8464 10.6995Z" fill="#494949"/>
<path d="M168.689 100.948L175.556 90.7886C177.976 87.1866 235.355 2.76376 276.919 0.990878C286.6 0.568764 294.733 4.39593 301.121 12.3317C308.887 21.9559 308.156 30.7077 306.186 36.3359C300.698 51.9823 277.679 67.2065 237.747 81.5584C208.79 91.9706 180.959 98.2178 180.677 98.2741L168.717 100.948H168.689ZM278.27 10.6995C277.961 10.6995 277.651 10.6995 277.313 10.6995C250.776 11.8251 211.21 58.314 191.089 85.6388C226.294 76.493 288.936 55.922 296.928 33.0434C298.644 28.1187 297.547 23.4473 293.466 18.382C289.273 13.204 284.292 10.6432 278.242 10.6432L278.27 10.6995Z" fill="#494949"/>
</svg>
